<?xml version="1.0" encoding="UTF-8" standalone="no"?>
<!-- Created with Inkscape (http://www.inkscape.org/) -->

<svg
   xmlns:dc="http://purl.org/dc/elements/1.1/"
   xmlns:cc="http://creativecommons.org/ns#"
   xmlns:rdf="http://www.w3.org/1999/02/22-rdf-syntax-ns#"
   xmlns:svg="http://www.w3.org/2000/svg"
   xmlns="http://www.w3.org/2000/svg"
   xmlns:sodipodi="http://sodipodi.sourceforge.net/DTD/sodipodi-0.dtd"
   xmlns:inkscape="http://www.inkscape.org/namespaces/inkscape"
   id="svg4136"
   version="1.1"
   inkscape:version="0.91 r13725"
   width="1016.8119"
   height="749.38348"
   viewBox="0 0 1016.8118 749.38346"
   sodipodi:docname="matt_cartoon_2.svg">
  <metadata
     id="metadata4142">
    <rdf:RDF>
      <cc:Work
         rdf:about="">
        <dc:format>image/svg+xml</dc:format>
        <dc:type
           rdf:resource="http://purl.org/dc/dcmitype/StillImage" />
        <dc:title></dc:title>
      </cc:Work>
    </rdf:RDF>
  </metadata>
  <defs
     id="defs4140" />
  <sodipodi:namedview
     pagecolor="#ffffff"
     bordercolor="#666666"
     borderopacity="1"
     objecttolerance="10"
     gridtolerance="10"
     guidetolerance="10"
     inkscape:pageopacity="0"
     inkscape:pageshadow="2"
     inkscape:window-width="1600"
     inkscape:window-height="837"
     id="namedview4138"
     showgrid="false"
     inkscape:zoom="0.94240507"
     inkscape:cx="508.40595"
     inkscape:cy="312.14681"
     inkscape:window-x="-8"
     inkscape:window-y="-8"
     inkscape:window-maximized="1"
     inkscape:current-layer="svg4136"
     fit-margin-top="-1"
     fit-margin-left="-1"
     fit-margin-right="-1"
     fit-margin-bottom="-1" />
  <path
     style="opacity:1;fill:#d2d2d2;fill-opacity:1;stroke:none;stroke-width:2;stroke-miterlimit:4;stroke-dasharray:none;stroke-opacity:1"
     d="m -1.000061,-1 1018.811861,0 0,751.38348 -1018.811861,0 z"
     id="rect4656"
     inkscape:connector-curvature="0" />
  <path
     style="opacity:1;fill:#be0000;fill-opacity:1;stroke:none;stroke-width:1;stroke-miterlimit:4;stroke-dasharray:none;stroke-opacity:1"
     d="m 503.9438,270.1775 0.01,0.92494 -106.6276,11.07096 -1.5496,0.17844 c 0,0 -14.0599,0.37206 -19.8339,4.23953 -38.354,25.68918 -68.4245,118.93138 -68.4245,118.93138 l 63.33368,36.69732 21.63242,-57.64367 -1.7488,206.26482 114.5208,0 6.2992,0 114.5208,0 -1.7488,-206.26482 27.3853,54.19194 57.5808,-33.24559 c 0,0 -30.0705,-93.2422 -68.4243,-118.93138 -5.7742,-3.86747 -19.8356,-4.23953 -19.8356,-4.23953 l -1.548,-0.17845 -106.6276,-11.07095 0.01,-0.92494 -4.4566,0.46247 -4.4567,-0.46247 z"
     id="rect4200"
     inkscape:connector-curvature="0"
     sodipodi:nodetypes="ccccsccccccccccsccccccc" />
  <path
     style="fill:#ffdaa3;fill-opacity:1;fill-rule:evenodd;stroke:none;stroke-width:1px;stroke-linecap:butt;stroke-linejoin:miter;stroke-opacity:1"
     d="m 310.3503,407.03566 57.12899,33.13328 -48.45201,89.00931 89.46062,43.71709 -2.7708,32.32597 c 0,0 -72.90354,-20.49621 -108.00708,-25.7383 -4.25454,-0.63534 -9.3215,-1.47043 -14.15069,-2.11034 -5.01959,-0.66514 -9.9939,-2.44166 -14.3158,-5.0798 -3.0673,-1.87233 -7.8506,-7.38879 -7.8506,-7.38879 -1.3842,-1.80269 -2.5063,-3.84978 -3.2326,-6.0034 -0.9462,-2.80571 -1.5042,-5.81562 -1.3854,-8.7742 0.1842,-4.58857 2.0382,-8.95796 3.2326,-13.39219 1.6838,-6.25088 3.1182,-9.62361 4.8373,-14.47906 2.6134,-7.38149 45.50547,-115.21957 45.50547,-115.21957 z"
     id="path4210"
     inkscape:connector-curvature="0"
     sodipodi:nodetypes="cccccssssssssc" />
  <path
     style="opacity:1;fill:#ffdaa3;fill-opacity:1;stroke:none;stroke-width:1;stroke-miterlimit:4;stroke-dasharray:none;stroke-opacity:1"
     d="m 476.7672,209.98265 63.2665,0 0,77.857 c 0,0 -21.4391,24.47539 -32.1587,24.47539 -10.3693,0 -31.1078,-24.47539 -31.1078,-24.47539 z"
     id="rect4194"
     inkscape:connector-curvature="0"
     sodipodi:nodetypes="cccscc" />
  <g
     id="g4188"
     transform="matrix(0.76136071,0,0,0.76136071,-35.724174,227.8379)">
    <path
       inkscape:connector-curvature="0"
       id="path4691"
       d="m 714.90245,-266.55949 a 121.30904,158.99229 0 0 0 -120.75586,144.48438 l -0.49414,-8.37891 c 0,0 -3.38495,-11.8002 -8.36329,-13.93945 -4.23847,-1.82132 -9.77008,0.30072 -13.50976,3.00195 -4.85956,3.51013 -8.26847,9.52119 -9.22266,15.43946 -1.3637,8.45818 2.31108,17.17095 5.57617,25.09179 2.44877,5.94052 7.63606,10.44649 10.29297,16.29688 2.59048,5.70411 2.15471,12.63175 5.36133,18.01367 1.65578,2.77903 3.67584,6.30922 6.86328,6.86133 1.48077,0.25649 3.13806,-0.75407 4.07422,-1.92969 1.66288,-2.08823 2.15038,-6.80882 2.29492,-9.22461 A 121.30904,158.99229 0 0 0 714.90245,51.42489 121.30904,158.99229 0 0 0 832.4669,-69.17667 c 0.25204,2.52119 0.82411,5.88325 2.1582,7.55859 0.93616,1.17562 2.59345,2.18618 4.07422,1.92969 3.18744,-0.55211 5.20555,-4.0823 6.86133,-6.86133 3.20662,-5.38192 2.77085,-12.30956 5.36133,-18.01367 2.65691,-5.85039 7.8442,-10.35636 10.29297,-16.29688 3.26508,-7.92084 6.93987,-16.63361 5.57617,-25.09179 -0.95419,-5.91827 -4.36115,-11.92933 -9.22071,-15.43946 -3.73968,-2.70123 -9.27129,-4.82327 -13.50976,-3.00195 -4.97834,2.13925 -8.36328,13.93945 -8.36328,13.93945 l -0.33789,5.73047 A 121.30904,158.99229 0 0 0 714.90245,-266.55949 Z"
       style="opacity:1;fill:#ffdaa3;fill-opacity:1;stroke:none;stroke-width:1;stroke-miterlimit:4;stroke-dasharray:none;stroke-opacity:1" />
    <path
       inkscape:connector-curvature="0"
       id="path4699"
       d="m 596.2169,-134.11808 c -0.14234,-0.065 -0.26537,0.0748 -0.36133,0.45898 0,0 -0.0978,2.35146 -0.5,5.91602 -0.40221,3.56455 -0.50057,7.73484 -0.50391,11.375 -0.007,7.58991 1.28138,24.871317 1.61133,30.929688 0.57689,10.592579 1.92393,21.188062 4.2461,31.539062 1.97358,8.79715 5.0141,17.340437 8.1875,25.779297 3.37805,8.98309 6.70074,18.088395 11.52539,26.3847655 5.51902,9.4904 12.16923,18.4085255 19.71289,26.3847655 3.35297,3.54524 7.289,6.510261 11.2207,9.400391 5.1289,3.77018 10.04111,7.232032 15.76953,10.007812 2.79067,1.35225 6.39089,2.900685 9.40235,3.640625 5.26199,1.29292 10.37431,1.621167 15.76953,2.123047 5.64035,0.52468 11.3197,0.622299 16.98437,0.605469 0.56913,-0.0017 1.09873,0.0086 1.61133,0.02344 1.64759,0.157981 3.0009,0.181946 4.26172,0.15625 1.26082,0.0257 2.61412,0.0017 4.26172,-0.15625 0.51263,-0.01483 1.04411,-0.02513 1.61328,-0.02344 5.66467,0.01683 11.34207,-0.08079 16.98242,-0.605469 5.39522,-0.50188 10.50753,-0.830127 15.76953,-2.123047 3.01146,-0.73994 6.61168,-2.288375 9.40234,-3.640625 5.72842,-2.77578 10.64064,-6.237632 15.76954,-10.007812 3.9317,-2.89013 7.86773,-5.855151 11.2207,-9.400391 7.54366,-7.97624 14.19387,-16.8943655 19.71289,-26.3847655 4.82465,-8.2963705 8.14734,-17.4016755 11.52539,-26.3847655 3.1734,-8.43886 6.21392,-16.982147 8.1875,-25.779297 2.32217,-10.351 3.6692,-20.946483 4.24609,-31.539062 0.32995,-6.058371 1.61833,-23.339778 1.61133,-30.929688 -0.003,-3.64016 -0.10169,-7.81045 -0.5039,-11.375 -0.40221,-3.56456 -0.5,-5.91602 -0.5,-5.91602 -1.02354,-4.09822 -4.95535,19.57894 -6.06641,23.6543 -1.29392,4.74607 -1.53892,9.71991 -2.42578,14.558595 -1.02221,5.5772 -2.17074,11.130598 -3.33594,16.679687 -1.06354,5.06496 -1.83055,10.212423 -3.33594,15.164063 -1.61082,5.29845 -3.72496,10.448237 -6.0664,15.466797 -2.1422,4.59151 -4.48662,9.11494 -7.27735,13.34375 -2.33927,3.54471 -4.93246,6.954762 -7.88476,10.007812 -2.94225,3.04265 -6.04215,6.06677 -9.70508,8.1875 -4.09598,2.37145 -8.61312,4.705116 -13.34375,4.853516 -3.58091,0.11233 -6.88339,-1.995573 -10.3125,-3.033203 -4.55997,-1.37982 -9.05151,-2.987744 -13.64648,-4.246094 -5.91228,-1.61909 -11.85628,-3.178554 -17.89258,-4.246094 -3.40791,-0.6027 -6.85457,-1.07206 -10.3125,-1.21289 -2.49988,-0.101815 -5.11372,-0.139951 -7.69336,-0.09766 -2.57965,-0.04229 -5.19348,-0.0042 -7.69336,0.09766 -3.45793,0.14083 -6.90459,0.61019 -10.3125,1.21289 -6.0363,1.06754 -11.9803,2.627004 -17.89258,4.246094 -4.59497,1.25835 -9.08651,2.866274 -13.64648,4.246094 -3.42911,1.03763 -6.73159,3.145533 -10.3125,3.033203 -4.73063,-0.1484 -9.24777,-2.482066 -13.34375,-4.853516 -3.66293,-2.12073 -6.76088,-5.14485 -9.70313,-8.1875 -2.9523,-3.05305 -5.54745,-6.463102 -7.88672,-10.007812 -2.79073,-4.22881 -5.13514,-8.75224 -7.27734,-13.34375 -2.34144,-5.01856 -4.45559,-10.168347 -6.06641,-15.466797 -1.50539,-4.95164 -2.27239,-10.099103 -3.33594,-15.164063 -1.1652,-5.549089 -2.31372,-11.102487 -3.33593,-16.679687 -0.88686,-4.838685 -1.13186,-9.812525 -2.42578,-14.558595 -1.0069,-3.69329 -4.3291,-23.48486 -5.70508,-24.11328 z m 91.66601,128.0976562 c 3.72434,-0.051572 7.72179,1.9635157 11.38868,2.4648438 2.7701,0.3787246 4.78105,0.7026477 6.84765,0.9707031 0.2125,0.096506 0.43134,0.1794243 0.65625,0.2421875 3.39269,0.9467384 6.22906,0.8789007 8.37891,0.6640625 2.15006,0.2149774 4.98529,0.282935 8.3789,-0.6640625 0.22492,-0.062763 0.44376,-0.1456819 0.65625,-0.2421875 2.06661,-0.2680554 4.07755,-0.5919785 6.84766,-0.9707031 3.91134,-0.53475 8.20013,-2.7917312 12.13086,-2.4257812 0.99134,0.0923 2.13303,0.4149706 2.72852,1.2128906 1.40243,1.87915 1.23176,4.6519893 0.91015,6.9746093 -0.2112,1.5252101 -0.9408,2.9822338 -1.82031,4.2460938 -1.5929,2.28902 -3.7953,4.1425915 -6.06445,5.7636715 -2.13392,1.52447 -4.54073,2.666912 -6.97657,3.638672 -3.41782,1.36351 -6.99184,2.380623 -10.61328,3.033203 -1.97264,0.355468 -4.07957,0.479245 -6.17773,0.566407 -2.09816,-0.08716 -4.20509,-0.210939 -6.17774,-0.566407 -3.62144,-0.65258 -7.19546,-1.669693 -10.61328,-3.033203 -2.43584,-0.97176 -4.84264,-2.114202 -6.97656,-3.638672 -2.26915,-1.62108 -4.47155,-3.4746515 -6.06445,-5.7636715 -0.87951,-1.26386 -1.60912,-2.7208837 -1.82032,-4.2460938 -0.32161,-2.32262 -0.49227,-5.0954593 0.91016,-6.9746093 0.59549,-0.79792 1.73718,-1.1205906 2.72852,-1.2128906 0.24567,-0.022872 0.49389,-0.035624 0.74218,-0.039063 z"
       style="fill:#c49c64;fill-opacity:1;fill-rule:evenodd;stroke:none;stroke-width:1px;stroke-linecap:butt;stroke-linejoin:miter;stroke-opacity:1" />
  </g>
  <path
     sodipodi:nodetypes="csccsssc"
     inkscape:connector-curvature="0"
     id="path4164"
     d="m 488.75336,127.96487 c 0,0 -4.18741,-5.05891 -7.67376,-5.87774 -11.0797,-2.60226 -35.9988,6.31153 -35.9988,6.31153 l -1.46943,-6.53083 c 0,0 11.50484,-3.39353 18.91159,-5.42444 3.70341,-1.01546 7.74905,-1.18644 10.24723,-1.29222 2.4981,-0.10578 5.08147,0.0169 7.81963,1.22147 4.92144,2.16512 8.16354,11.59223 8.16354,11.59223 z"
     style="fill:#c49c64;fill-opacity:1;fill-rule:evenodd;stroke:none;stroke-width:1px;stroke-linecap:butt;stroke-linejoin:miter;stroke-opacity:1" />
  <path
     style="fill:#c49c64;fill-opacity:1;fill-rule:evenodd;stroke:none;stroke-width:1px;stroke-linecap:butt;stroke-linejoin:miter;stroke-opacity:1"
     d="m 528.04764,127.96493 c 0,0 4.18733,-5.05891 7.67368,-5.87774 11.0797,-2.60225 35.99889,6.31154 35.99889,6.31154 l 1.46942,-6.53084 c 0,0 -11.50492,-3.39352 -18.91166,-5.42444 -3.70342,-1.01546 -7.74906,-1.18643 -10.24716,-1.29222 -2.49818,-0.10578 -5.08155,0.0169 -7.81963,1.22148 -4.92144,2.16512 -8.16354,11.59222 -8.16354,11.59222 z"
     id="path4397"
     inkscape:connector-curvature="0"
     sodipodi:nodetypes="csccsssc" />
  <path
     sodipodi:nodetypes="csssccccc"
     inkscape:connector-curvature="0"
     id="path4168"
     d="m 466.22447,135.12521 c 5.72596,3e-5 9.19792,1.80263 12.95029,3.92152 2.42356,1.36853 5.05033,4.23111 6.09956,5.70199 1.04923,1.47088 1.7978,1.98488 1.79255,3.78834 0,1.02641 0.6081,3.02819 0.22003,4.02506 -2.23337,-5.86859 -12.24245,-14.50847 -21.8228,-14.5158 -9.58028,0.008 -16.22148,8.64721 -18.45493,14.5158 -0.38799,-0.99687 -0.58815,-2.01906 -0.5963,-3.04544 -3.8e-4,-7.21387 8.35959,-14.3914 19.8116,-14.39147 z"
     style="opacity:1;fill:#4d4d4d;fill-opacity:1;stroke:none;stroke-width:1;stroke-miterlimit:4;stroke-dasharray:none;stroke-opacity:1" />
  <ellipse
     transform="matrix(-0.99680734,-0.07984441,-0.07984441,0.99680734,0,0)"
     ry="6.3757267"
     rx="11.404468"
     cy="115.00918"
     cx="-482.79187"
     id="ellipse4170"
     style="opacity:1;fill:#4d4d4d;fill-opacity:1;stroke:none;stroke-width:1;stroke-miterlimit:4;stroke-dasharray:none;stroke-opacity:1" />
  <path
     style="opacity:1;fill:#4d4d4d;fill-opacity:1;stroke:none;stroke-width:1;stroke-miterlimit:4;stroke-dasharray:none;stroke-opacity:1"
     d="m 550.57653,135.12527 c -5.72604,3e-5 -9.19799,1.80263 -12.95036,3.92152 -2.42349,1.36853 -5.05033,4.23111 -6.09957,5.70199 -1.04923,1.47088 -1.7978,1.98488 -1.79254,3.78834 0,1.02641 -0.6081,3.0282 -0.22004,4.02506 2.23345,-5.86859 12.24245,-14.50847 21.82281,-14.5158 9.58035,0.008 16.22155,8.64721 18.45493,14.5158 0.38806,-0.99686 0.58822,-2.01906 0.59629,-3.04544 3.8e-4,-7.21387 -8.35951,-14.3914 -19.81159,-14.39147 z"
     id="path4399"
     inkscape:connector-curvature="0"
     sodipodi:nodetypes="csssccccc" />
  <ellipse
     style="opacity:1;fill:#4d4d4d;fill-opacity:1;stroke:none;stroke-width:1;stroke-miterlimit:4;stroke-dasharray:none;stroke-opacity:1"
     id="ellipse4419"
     cx="557.9223"
     cy="139.40334"
     rx="11.404468"
     ry="6.3757267"
     transform="matrix(0.99969274,0.02478773,-0.02478773,0.99969274,0,0)" />
  <g
     id="g4164"
     transform="matrix(0.76136071,0,0,0.76136071,-27.529042,227.8379)">
    <path
       sodipodi:nodetypes="sssccss"
       inkscape:connector-curvature="0"
       id="rect4156"
       d="m 572.82305,444.85652 56.17248,0 c 5.89548,0 10.64166,7.29388 10.64166,16.35398 0,4.53005 0.17819,2.55309 -0.98711,5.81234 l -75.32994,1.21309 c -1.31693,-3.56253 -1.13876,-2.49538 -1.13876,-7.02543 0,-9.0601 4.74619,-16.35398 10.64167,-16.35398 z"
       style="opacity:1;fill:#ffdaa3;fill-opacity:1;stroke:none;stroke-width:1;stroke-miterlimit:4;stroke-dasharray:none;stroke-opacity:1" />
    <path
       style="opacity:1;fill:#ffdaa3;fill-opacity:1;stroke:none;stroke-width:1;stroke-miterlimit:4;stroke-dasharray:none;stroke-opacity:1"
       d="m 834.99721,444.85652 -56.17248,0 c -5.89548,0 -10.64166,7.29388 -10.64166,16.35398 0,4.53005 -0.17819,2.55309 0.98711,5.81234 l 75.32994,1.21309 c 1.31693,-3.56253 1.13876,-2.49538 1.13876,-7.02543 0,-9.0601 -4.74619,-16.35398 -10.64167,-16.35398 z"
       id="path4162"
       inkscape:connector-curvature="0"
       sodipodi:nodetypes="sssccss" />
  </g>
  <path
     sodipodi:nodetypes="cccccssssssssc"
     inkscape:connector-curvature="0"
     id="path4286"
     d="m 708.89669,407.03566 -58.31573,31.42734 49.63875,90.71525 -89.46062,43.71709 2.7708,32.32597 c 0,0 72.90354,-20.49621 108.00708,-25.7383 4.25454,-0.63534 9.3215,-1.47043 14.15069,-2.11034 5.01959,-0.66514 9.9939,-2.44166 14.3158,-5.0798 3.0673,-1.87233 7.8506,-7.38879 7.8506,-7.38879 1.3842,-1.80269 2.5063,-3.84978 3.2326,-6.0034 0.9462,-2.80571 1.5042,-5.81562 1.3854,-8.7742 -0.1842,-4.58857 -2.0382,-8.95796 -3.2326,-13.39219 -1.6838,-6.25088 -3.1182,-9.62361 -4.8373,-14.47906 -2.6134,-7.38149 -45.50547,-115.21957 -45.50547,-115.21957 z"
     style="fill:#ffdaa3;fill-opacity:1;fill-rule:evenodd;stroke:none;stroke-width:1px;stroke-linecap:butt;stroke-linejoin:miter;stroke-opacity:1" />
  <path
     style="opacity:1;fill:#333333;fill-opacity:1;stroke:none;stroke-width:1;stroke-miterlimit:4;stroke-dasharray:none;stroke-opacity:1"
     d="m 350.2548,578.47495 316.2914,0 c 4.4886,0 9.693,6.27249 8.1021,13.68546 l -3.0454,14.19104 -326.4049,0 -3.0454,-14.19104 c -1.5909,-7.41297 3.6136,-13.68546 8.1022,-13.68546 z"
     id="rect4159"
     inkscape:connector-curvature="0"
     sodipodi:nodetypes="sssccss" />
  <path
     style="opacity:1;fill:#333333;fill-opacity:1;stroke:none;stroke-width:1;stroke-miterlimit:4;stroke-dasharray:none;stroke-opacity:1"
     d="m 89.753729,645.81127 837.304351,0 0,64.01346 -837.304351,0 z"
     id="rect4466"
     inkscape:connector-curvature="0" />
  <path
     style="opacity:1;fill:#515151;fill-opacity:1;stroke:none;stroke-width:1;stroke-miterlimit:4;stroke-dasharray:none;stroke-opacity:1"
     d="m 28.192729,602.83117 960.426251,0 c 0.1931,0 0.3485,0.16979 0.3485,0.38068 l 0,43.64831 c 0,0.2109 -0.1554,0.38068 -0.3485,0.38068 l -960.426251,0 c -0.19301,0 -0.3484,-0.16978 -0.3484,-0.38068 l 0,-43.64831 c 0,-0.21089 0.15539,-0.38068 0.3484,-0.38068 z"
     id="rect4301"
     inkscape:connector-curvature="0" />
  <g
     id="g4183"
     transform="translate(-114.35992,0)">
    <path
       inkscape:connector-curvature="0"
       id="rect4455"
       d="m 688.69176,267.02291 366.83154,0 c 3.3244,0 6.0006,3.27756 6.0006,7.34879 l 0,275.27145 c 0,4.07122 -2.6762,7.34878 -6.0006,7.34878 l -366.83154,0 c -3.32426,0 -6.00049,-3.27756 -6.00049,-7.34878 l 0,-275.27145 c 0,-4.07123 2.67623,-7.34879 6.00049,-7.34879 z"
       style="opacity:1;fill:#333333;fill-opacity:1;stroke:none;stroke-width:1;stroke-miterlimit:4;stroke-dasharray:none;stroke-opacity:1" />
    <path
       sodipodi:nodetypes="ccccc"
       inkscape:connector-curvature="0"
       id="rect4463"
       d="m 835.20392,452.09487 73.80738,0 15.40602,154.12768 -104.61951,0 z"
       style="opacity:1;fill:#515151;fill-opacity:1;stroke:none;stroke-width:1;stroke-miterlimit:4;stroke-dasharray:none;stroke-opacity:1" />
  </g>
  <g
     id="g4173"
     transform="translate(-46.359921,0)">
    <path
       sodipodi:nodetypes="ccsscc"
       inkscape:connector-curvature="0"
       id="path4488"
       d="m 361.45569,589.85476 c -69.69905,22.11347 -123.05562,11.21389 -182.54526,13.46418 -14.87219,-9.08744 -22.14827,-22.17807 -20.5338,-40.69872 3.22893,-37.0413 52.49185,-63.00307 110.03173,-57.9872 57.53983,5.0158 102.70129,42.13335 99.47239,79.17461 z"
       style="opacity:1;fill:#3c3c3c;fill-opacity:1;stroke:#272727;stroke-width:1.58281422;stroke-miterlimit:4;stroke-dasharray:none;stroke-opacity:1" />
    <path
       inkscape:connector-curvature="0"
       id="path4483"
       d="m 123.21213,570.75214 c -15.76332,20.07497 -21.30984,19.28169 -30.813681,-4.40709 -9.50368,-23.68879 -6.04328,-28.09547 19.223401,-24.48167 25.26716,3.61383 27.35344,8.8138 11.59028,28.88876 z"
       inkscape:transform-center-y="-7.7589231"
       inkscape:transform-center-x="21.958233"
       style="opacity:1;fill:#3c3c3c;fill-opacity:1;stroke:#272727;stroke-width:1.58281422;stroke-miterlimit:4;stroke-dasharray:none;stroke-opacity:1" />
    <path
       style="opacity:1;fill:#3c3c3c;fill-opacity:1;stroke:#272727;stroke-width:1.58281422;stroke-miterlimit:4;stroke-dasharray:none;stroke-opacity:1"
       inkscape:transform-center-x="10.723328"
       inkscape:transform-center-y="-21.554712"
       d="m 183.4899,542.2371 c -24.2956,7.82338 -28.44957,4.06333 -23.07712,-20.88898 5.37261,-24.95222 10.70598,-26.66943 29.62883,-9.54078 18.92315,17.12891 17.7439,22.6063 -6.55171,30.42976 z"
       id="path4486"
       inkscape:connector-curvature="0" />
    <path
       sodipodi:nodetypes="ssssssss"
       inkscape:connector-curvature="0"
       id="path4480"
       d="m 222.26179,543.7682 c 8.13619,22.87338 -6.80572,41.8263 -39.60401,55.5424 -8.39912,3.51247 -11.00424,6.44826 -19.20042,6.46914 l -37.41465,0.0953 c -7.17036,0.0183 -12.11993,0.32679 -17.29872,-2.49909 -5.17879,-2.82588 -9.073803,-7.04802 -11.107862,-12.76635 -8.136248,-22.87336 13.459902,-53.95508 47.769972,-66.15938 34.31001,-12.2043 68.71946,-3.55535 76.85569,19.31797 z"
       style="opacity:1;fill:#3c3c3c;fill-opacity:1;stroke:#272727;stroke-width:1.58281422;stroke-miterlimit:4;stroke-dasharray:none;stroke-opacity:1" />
    <g
       transform="matrix(0.76136071,0,0,0.76136071,128.31144,12.889977)"
       id="g4527">
      <path
         style="fill:none;fill-rule:evenodd;stroke:#000000;stroke-width:1.80499995;stroke-linecap:butt;stroke-linejoin:miter;stroke-miterlimit:4;stroke-dasharray:none;stroke-opacity:1"
         d="m -3.8879265,744.47324 c 0,0 12.3587176,0.27281 18.2400575,-2.9184 4.874493,-2.6449 13.862445,-13.86245 13.862445,-13.86245"
         id="path4523"
         inkscape:connector-curvature="0"
         sodipodi:nodetypes="csc" />
      <path
         sodipodi:nodetypes="csc"
         inkscape:connector-curvature="0"
         id="path4525"
         d="m 50.03403,716.73348 c 0,0 12.324002,-0.96504 17.856554,-4.72866 C 72.476,708.8855 80.296548,696.825 80.296548,696.825"
         style="fill:none;fill-rule:evenodd;stroke:#010101;stroke-width:1.80499995;stroke-linecap:butt;stroke-linejoin:miter;stroke-miterlimit:4;stroke-dasharray:none;stroke-opacity:1" />
    </g>
    <path
       sodipodi:nodetypes="sssssssssss"
       inkscape:connector-curvature="0"
       id="path4491"
       d="m 174.36033,587.30347 c -10.54112,-0.71377 -13.11359,11.42782 -10.71496,14.52001 5.15277,6.6427 0.94038,4.64971 17.90355,5.10165 16.96317,0.45195 55.10192,-1.56446 81.46224,-0.25983 52.32421,2.58964 93.05192,4.04187 98.21284,-2.01443 9.01689,-10.58125 9.57542,-28.06157 6.17617,-28.42764 -3.39925,-0.36608 -15.2916,9.20113 -16.81455,10.38509 -4.35041,3.38205 -19.52751,4.47591 -22.90722,4.92188 -25.12159,3.31492 -35.59421,-1.28881 -65.95304,-1.38303 -33.59502,-0.10426 -37.33423,2.46491 -63.40198,-1.22109 -10.35439,-1.46413 0,0 -23.96305,-1.62261 z"
       style="opacity:1;fill:#3c3c3c;fill-opacity:1;stroke:#272727;stroke-width:1.58281422;stroke-miterlimit:4;stroke-dasharray:none;stroke-opacity:1" />
  </g>
  <text
     xml:space="preserve"
     style="font-style:normal;font-variant:normal;font-weight:normal;font-stretch:normal;font-size:25px;line-height:125%;font-family:Verdana;-inkscape-font-specification:Verdana;letter-spacing:0px;word-spacing:0px;fill:#515151;fill-opacity:1;stroke:none;stroke-width:1px;stroke-linecap:butt;stroke-linejoin:miter;stroke-opacity:1"
     x="679.21405"
     y="737.47479"
     id="text4172"
     sodipodi:linespacing="125%"><tspan
       sodipodi:role="line"
       id="tspan4174"
       x="679.21405"
       y="737.47479">website by Cindy Conrad</tspan></text>
</svg>
